<?xml version="1.0" encoding="UTF-8" standalone="no"?>
<!-- Created with Inkscape (http://www.inkscape.org/) -->

<svg
   xmlns:dc="http://purl.org/dc/elements/1.1/"
   xmlns:cc="http://creativecommons.org/ns#"
   xmlns:rdf="http://www.w3.org/1999/02/22-rdf-syntax-ns#"
   xmlns:svg="http://www.w3.org/2000/svg"
   xmlns="http://www.w3.org/2000/svg"
   xmlns:sodipodi="http://sodipodi.sourceforge.net/DTD/sodipodi-0.dtd"
   xmlns:inkscape="http://www.inkscape.org/namespaces/inkscape"
   width="512mm"
   height="512mm"
   viewBox="0 0 512 512"
   version="1.1"
   id="svg8"
   inkscape:version="0.92.2 (5c3e80d, 2017-08-06)"
   sodipodi:docname="drawing.svg">
  <defs
     id="defs2" />
  <sodipodi:namedview
     id="base"
     pagecolor="#ffffff"
     bordercolor="#666666"
     borderopacity="1.0"
     inkscape:pageopacity="0.0"
     inkscape:pageshadow="2"
     inkscape:zoom="0.49497475"
     inkscape:cx="1330.8055"
     inkscape:cy="1484.183"
     inkscape:document-units="mm"
     inkscape:current-layer="layer1"
     showgrid="false"
     inkscape:pagecheckerboard="true"
     inkscape:snap-page="true"
     inkscape:window-width="1920"
     inkscape:window-height="1001"
     inkscape:window-x="-9"
     inkscape:window-y="-9"
     inkscape:window-maximized="1" />
  <metadata
     id="metadata5">
    <rdf:RDF>
      <cc:Work
         rdf:about="">
        <dc:format>image/svg+xml</dc:format>
        <dc:type
           rdf:resource="http://purl.org/dc/dcmitype/StillImage" />
        <dc:title></dc:title>
      </cc:Work>
    </rdf:RDF>
  </metadata>
  <g
     inkscape:label="Layer 1"
     inkscape:groupmode="layer"
     id="layer1"
     transform="translate(0,215)">
    <path
       id="path1366"
       style="opacity:1;fill:#000035;fill-opacity:1;stroke:#000000;stroke-width:0;stroke-miterlimit:4;stroke-dasharray:none;stroke-opacity:1"
       d="M 968,14.832031 A 962.85702,949.9999 0 0 0 5.1425781,964.83203 962.85702,949.9999 0 0 0 968,1914.832 962.85702,949.9999 0 0 0 1930.8574,964.83203 962.85702,949.9999 0 0 0 968,14.832031 Z"
       transform="matrix(0.26458333,0,0,0.26458333,0,-215)" />
    <path
       id="path1390"
       transform="matrix(0.26458333,0,0,0.26458333,0,-215)"
       style="opacity:1;vector-effect:none;fill:none;fill-opacity:1;fill-rule:evenodd;stroke:#ffffff;stroke-width:60.57974625;stroke-linecap:butt;stroke-linejoin:miter;stroke-miterlimit:4;stroke-dasharray:none;stroke-dashoffset:0;stroke-opacity:1"
       d="M 978,126.36523 A 844.18155,831.32443 0 0 0 133.81836,957.68945 844.18155,831.32443 0 0 0 978,1789.0137 844.18155,831.32443 0 0 0 1822.1816,957.68945 844.18155,831.32443 0 0 0 978,126.36523 Z" />
    <path
       sodipodi:type="star"
       style="opacity:1;fill:#ffffff;fill-opacity:1;stroke:#ffffff;stroke-width:10;stroke-miterlimit:4;stroke-dasharray:none;stroke-opacity:1"
       id="path1432"
       sodipodi:sides="30"
       sodipodi:cx="266.8512"
       sodipodi:cy="49.803593"
       sodipodi:r1="160.84537"
       sodipodi:r2="189.22984"
       sodipodi:arg1="0.79104782"
       sodipodi:arg2="0.89576758"
       inkscape:flatsided="false"
       inkscape:rounded="0"
       inkscape:randomized="0"
       d="m 379.94167,164.17919 5.16299,33.35406 -31.41431,-12.34061 -1.88453,33.69864 -28.16208,-18.60234 -8.84969,32.57043 -23.67902,-24.05106 -15.42808,30.01873 -18.16109,-28.44863 -21.33218,26.15507 -11.84942,-31.60287 -26.30396,21.14832 -5.01988,-33.3759 -30.12614,15.21727 2.02906,-33.69025 -32.63167,8.62116 8.98932,-32.53217 -33.71102,1.64826 15.55669,-29.95228 L 89.809614,116.61835 111.25379,90.55502 79.786829,78.349273 106.18127,57.313984 77.939653,38.832612 108.13079,23.744707 84.348819,-0.20456389 117.01716,-8.6856716 98.734214,-37.056144 132.452,-38.559789 l -11.98487,-31.551747 33.29359,5.539534 -5.16299,-33.35406 31.41431,12.34061 1.88453,-33.698638 28.16208,18.60234 8.84969,-32.57043 23.67903,24.05106 15.42807,-30.01873 18.16109,28.44863 21.33218,-26.15507 11.84942,31.60286 26.30397,-21.14831 5.01987,33.375897 30.12615,-15.217267 -2.02906,33.690244 32.63166,-8.621158 -8.98932,32.532168 33.71103,-1.648261 -15.5567,29.952278 33.31705,5.396674 -21.44418,26.0633302 31.46696,12.2057478 -26.39443,21.035289 28.24161,18.481371 -30.19114,15.087906 23.78197,23.94927 -32.66834,8.481111 18.28295,28.37047 -33.71778,1.50364 11.98486,31.55175 z"
       transform="matrix(0.7535775,0,0,0.72542081,55.174805,11.407178)" />
    <ellipse
       style="opacity:1;vector-effect:none;fill:none;fill-opacity:1;fill-rule:evenodd;stroke:none;stroke-width:0.37597448;stroke-linecap:butt;stroke-linejoin:miter;stroke-miterlimit:4;stroke-dasharray:none;stroke-dashoffset:0;stroke-opacity:1"
       id="path1436"
       cx="377.22021"
       cy="-137.67261"
       rx="49.136902"
       ry="43.089287" />
    <path
       inkscape:connector-curvature="0"
       id="path1440-1-8"
       style="opacity:1;vector-effect:none;fill:#fffffd;fill-opacity:1;fill-rule:nonzero;stroke:none;stroke-width:0.58858746;stroke-linecap:butt;stroke-linejoin:miter;stroke-miterlimit:4;stroke-dasharray:none;stroke-dashoffset:0;stroke-opacity:1"
       d="m 336.14252,-90.016273 c 0.0289,-0.08333 0.0574,-0.144498 0.0871,-0.216124 -0.0443,-0.08052 -0.0834,-0.151809 -0.12306,-0.223978 -0.0123,0.06385 -0.0304,0.125877 -0.0452,0.188657 0.004,0.08042 0.003,0.161286 0.006,0.240842 a 13.516283,94.189125 70.3023 0 0 0.0655,0.0058 z m -4.2024,-0.748036 c 0.005,-0.143213 0.0129,-0.28638 0.0186,-0.429604 -0.0833,0.114209 -0.17112,0.230264 -0.26272,0.342944 a 13.516283,94.189125 70.3023 0 0 0.24348,0.08667 z m 47.88292,-6.998562 a 13.516283,94.189125 70.3023 0 0 39.67608,-12.385879 13.516283,94.189125 70.3023 0 0 87.89045,-45.21778 13.516283,94.189125 70.3023 0 0 -89.68925,17.17339 13.516283,94.189125 70.3023 0 0 -45.60223,18.11018 c -7e-5,0.001 0.004,0.002 0.005,0.002 -0.0208,0.37729 -0.0134,0.75789 -0.0859,1.12965 0.0101,0.016 0.021,0.0343 0.0334,0.0472 0.20861,0.74866 0.24465,0.49863 0.18089,0.9613 -0.008,0.0592 -0.017,0.11855 -0.028,0.17768 0.004,0.008 0.006,0.024 -0.01,0.0333 0.0493,0.10621 0.0582,0.2204 0.11118,0.64194 0.008,0.0623 -0.0178,0.12701 -0.0303,0.189 0.006,0.0136 -10e-4,0.0326 -0.005,0.0468 0.16477,0.36532 0.14065,0.74595 0.0494,1.17588 0.0574,0.13349 0.10074,0.27999 0.11633,0.42667 0.0993,0.18928 0.14483,0.56766 0.14986,0.65679 0.01,0.0267 -0.003,0.0628 -0.01,0.0945 0.005,0.008 0.004,0.008 0.01,0.02 0.18932,0.31892 0.35141,0.60204 0.38331,1.07864 0.10712,0.11212 0.0444,0.009 0.23801,0.57734 -0.0204,-0.0536 -0.0368,-0.10951 -0.0612,-0.16061 -0.01,-0.019 -0.0414,-0.0557 -0.0354,-0.0395 0.0408,0.10051 0.0846,0.19757 0.12905,0.29506 0.007,0.008 0.009,0.0108 0.01,0.0178 0.005,0.008 0.009,0.0168 0.01,0.0222 0.0208,0.0454 0.0425,0.0924 0.0605,0.13959 0.0163,0.0375 -0.026,-0.0549 -0.052,-0.10989 0.0609,0.19752 0.12148,0.39523 0.18253,0.59275 -0.0354,0.0792 0.0359,0.32205 0.0381,0.34947 0.0144,0.15378 0.0201,0.23437 0.0263,0.31202 0.18255,0.16061 0.20073,0.24164 0.24415,0.91767 5e-5,0.001 -3.4e-4,9.8e-4 -3.7e-4,0.003 0.0335,0.0437 0.0666,0.088 0.0949,0.13653 0.11458,0.19858 0.13924,0.59203 0.10755,0.87919 0.0668,0.10826 0.13008,0.23532 0.2372,0.41948 0.0163,0.0801 0.039,0.15783 0.048,0.23944 0.0186,0.17379 0.0259,0.24932 0.0349,0.33491 0.005,0.001 0.005,0.001 0.01,0.008 0.11951,0.20813 0.0823,0.13516 0.23343,0.60401 0.01,0.0195 -0.0107,0.0407 -0.004,0.0609 0.006,0.0568 0.0209,0.11197 0.0304,0.16819 0.0138,0.0859 0.0316,0.17009 0.0459,0.25584 0.01,0.008 0.0174,0.0202 0.0252,0.0316 0,6.5e-4 0.004,0.001 0.004,0.001 0.15887,0.17099 0.014,0.0398 0.39169,0.54572 0.0215,0.15413 0.045,0.30814 0.0655,0.46265 0.085,0.0811 0.0783,0.0213 0.1059,0.17103 0.0354,0.12305 0.0896,0.24099 0.11827,0.36648 0.0489,0.0485 0.0659,0.0564 0.0682,0.0447 0.0149,0.0434 0.0571,0.14644 0.16443,0.3718 -0.0851,-0.0515 0.0279,0.007 0.0324,0.11871 0.01,0.0289 -0.0739,-0.0569 -0.0586,-0.0367 0.38056,0.49125 0.14717,0.006 0.41943,0.78577 0.0153,0.0444 -0.0332,-0.0894 -0.0485,-0.13381 0.0452,0.14353 0.0967,0.28373 0.13673,0.42931 0.10979,0.18635 0.19961,0.3286 0.1062,0.18913 0.008,0.0167 0.0175,0.0392 0.027,0.0574 0.24512,0.13791 0.47053,0.34276 0.37324,0.73822 0.0126,0.11704 0.14929,0.34195 0.10604,0.38153 0.0508,0.0841 0.0997,0.16978 0.14044,0.26201 0.0316,0.0722 0.0291,0.16171 0.0436,0.24318 0.003,0.10482 0.005,0.21026 0.01,0.31558 0.0341,0.0402 0.0676,0.0792 0.10007,0.12124 0.034,0.0459 0.0514,0.10801 0.0775,0.16117 -0.1736,-0.19847 -0.0858,-0.0916 0.0922,0.17345 0.0433,0.0562 0.10604,0.11988 0.14757,0.17234 0.0876,0.043 0.17302,0.0911 0.24588,0.16279 0.0949,0.0931 0.1295,0.25435 0.19425,0.38159 -0.12789,-0.16287 0.003,-0.006 0.0246,0.0725 0.0816,0.15493 0.1724,0.30299 0.24629,0.46403 0.0188,0.039 0.0173,0.09 0.0264,0.13411 0.0196,0.0841 0.039,0.16667 0.0591,0.250517 0.18495,-0.0709 0.38795,-0.0407 0.56973,0.16789 0.12862,0.14693 0.13139,0.360577 0.0947,0.594147 0.01,0.0191 0.0138,0.0322 0.0193,0.0492 0.0135,0.0331 0.0252,0.0714 0.0379,0.0883 0.0822,0.120487 0.17922,0.223887 0.27249,0.331457 0.16713,0.0181 0.29345,0.18878 0.50819,0.435037 0.14315,0.1636 0.23207,0.33708 0.28371,0.508525 z m -1.10199,-1.363005 c -0.01,-0.0183 -0.0144,-0.029 -0.0195,-0.0455 -0.0275,0.16531 -0.0714,0.339867 -0.10897,0.512037 0.0633,-0.0452 0.11491,-0.0833 0.19094,-0.13597 0.0609,-0.0437 -9.5e-4,-0.179407 -0.0616,-0.330017 z m -0.0195,-0.0455 c 1.9e-4,-0.001 10e-4,-0.002 4.2e-4,-0.003 -0.0101,-0.0224 -0.0179,-0.0399 -0.0242,-0.0634 -0.0106,-0.0384 0.005,0.009 0.0236,0.0682 z m 0.72665,1.077114 c -0.0293,-0.066 -0.0742,-0.13454 -0.0918,-0.19765 -0.01,-0.025 0.008,0.0345 0.0195,0.0757 0.0148,0.0255 0.0245,0.053 0.036,0.0801 0.0137,0.0132 0.0241,0.03 0.0372,0.0424 z m -1.42272,-1.830001 c 1e-5,-2.7e-4 5e-5,-3.4e-4 0.003,-8.9e-4 -0.005,-0.004 -0.0131,-0.0338 -0.01,-0.0258 0.004,0.011 0.01,0.0177 0.01,0.0251 z m -11.7934,-0.809097 c 0.009,-0.0363 0.002,-0.076 0.008,-0.11363 -0.01,0.0334 -0.005,0.0722 -0.0136,0.10614 0.003,3.8e-4 0.004,0.003 0.005,0.006 z m 10.82103,-0.7817 c -0.01,-0.009 -0.0127,-0.0159 -0.0191,-0.0242 -0.0266,-0.008 -0.045,-0.0143 -0.0257,-0.001 0.0129,0.0108 0.0297,0.0175 0.0453,0.0264 z m -0.33137,-0.6597 c -0.01,-0.0181 -0.0151,-0.0362 -0.023,-0.0523 -0.01,-0.0174 -0.0577,-0.0431 -0.0455,-0.0276 0.0231,0.0284 0.0459,0.0528 0.0686,0.0811 z m -0.77802,-1.91457 c -0.0228,-0.0295 -0.0421,-0.0582 -0.0672,-0.0827 -0.0305,-0.0304 -0.15081,-0.0364 -0.11679,-0.013 0.0461,0.0301 0.11592,0.063 0.18499,0.094 z m 0.0657,-0.17132 c -0.0194,-0.0545 -0.0433,-0.11685 -0.0597,-0.14801 -0.0149,-0.0263 -0.0728,-0.087 -0.0584,-0.06 0.0395,0.0751 0.0766,0.13635 0.11947,0.20799 z m -2.18044,-0.40349 c -0.0648,-0.0331 -0.13234,-0.0608 -0.20025,-0.0878 0.004,0.002 0.005,0.008 0.007,0.0158 0.0376,0.0266 0.0842,0.0427 0.1959,0.0762 z m 1.44547,-1.1842 c -0.019,-0.0591 -0.0401,-0.11548 -0.0598,-0.14516 -0.0477,-0.0722 -0.23834,-0.22977 -0.18672,-0.16113 0.12025,0.1597 0.19189,0.24561 0.24635,0.30676 z m -2.14872,-0.61331 c 1e-5,-0.002 -0.005,-0.008 -0.01,-0.0144 -0.0846,-0.0934 -0.13721,-0.14369 -0.18981,-0.19233 0.0133,0.0296 0.0254,0.0588 0.0384,0.0888 0.0512,0.0545 0.15892,0.12888 0.16031,0.11651 z m 1.90574,0.0514 c -0.0169,-0.0438 -0.0355,-0.0881 -0.0587,-0.12718 -0.023,-0.0403 -0.1221,-0.12514 -0.0972,-0.0865 0.0696,0.10801 0.11467,0.16401 0.15571,0.2138 z m -0.85265,-2.15191 c -0.0148,-0.0269 -0.0291,-0.0526 -0.0466,-0.074 -0.0288,-0.0393 -0.27958,-0.2015 -0.29524,-0.19401 -6e-5,2.2e-4 -7e-5,3.2e-4 -8e-5,6.5e-4 -0.002,0.005 0.0745,0.0757 0.3406,0.26873 z m -1.12387,-4.69635 c -0.004,-0.009 -0.0325,-0.0696 -0.0656,-0.12654 0.01,0.0288 0.004,0.0501 0.007,0.0788 0.0238,0.0254 0.058,0.0643 0.06,0.0489 z m -0.0846,-0.16097 c -0.031,-0.0539 -0.0492,-0.0896 -0.11359,-0.19327 -0.009,-0.0106 -0.0282,-0.0301 -0.0436,-0.0457 0.0113,0.0234 0.0153,0.0462 0.0234,0.07 0.0457,0.0568 0.10617,0.1402 0.13305,0.16892 z m -0.72712,-3.52707 c 0.006,-0.0983 0.0135,-0.20535 -0.071,-0.21399 0.003,0.0372 0.0188,0.10424 0.0213,0.13853 0.0163,0.0258 0.0352,0.0505 0.0504,0.0747 z m -0.0799,-0.87938 c -0.004,-0.0665 -0.012,-0.12923 -0.0693,-0.14702 0.0192,0.0248 0.0328,0.0533 0.053,0.0779 0.009,0.0183 4.5e-4,0.0324 0.001,0.049 0.005,0.002 0.01,0.0162 0.0133,0.0188 z m -3.16192,-0.25863 c 0.0101,-0.12273 0.0152,-0.18147 -0.01,-0.0266 0.007,-0.058 0.011,-0.11572 0.015,-0.17402 -0.009,0.0102 -0.0256,0.013 -0.0392,0.0199 0.005,0.0959 0.005,0.13448 0.0276,0.1791 z m 2.81287,-1.0516 c -0.004,-0.002 -0.007,-0.008 -0.01,-0.0108 -0.01,-0.0108 -0.0281,-0.0292 -0.048,-0.042 0.005,0.008 0.007,0.0153 0.01,0.0218 0.0201,0.002 0.0335,0.0232 0.0523,0.0329 z" />
    <path
       inkscape:connector-curvature="0"
       id="path1440-1"
       style="opacity:1;vector-effect:none;fill:#000035;fill-opacity:1;fill-rule:nonzero;stroke:none;stroke-width:0.51960492;stroke-linecap:butt;stroke-linejoin:miter;stroke-miterlimit:4;stroke-dasharray:none;stroke-dashoffset:0;stroke-opacity:1"
       d="m 339.56203,-93.508042 c 0.0298,-0.0656 0.0532,-0.11517 0.0801,-0.1726 -0.0487,-0.0614 -0.0917,-0.11568 -0.13538,-0.17053 -0.0101,0.0506 -0.023,0.10065 -0.032,0.15141 0.007,0.063 0.0153,0.12715 0.0217,0.18965 a 11.005035,90.155263 70.925617 0 0 0.0656,0.002 z m -4.1801,-0.37207 c -0.003,-0.11335 -0.006,-0.22664 -0.009,-0.34003 -0.0745,0.0944 -0.15372,0.19042 -0.23616,0.28422 a 11.005035,90.155263 70.925617 0 0 0.24495,0.0558 z m 46.61937,-8.011908 a 11.005035,90.155263 70.925617 0 0 38.20078,-11.83752 11.005035,90.155263 70.925617 0 0 83.46622,-40.25645 11.005035,90.155263 70.925617 0 0 -87.05826,18.21491 11.005035,90.155263 70.925617 0 0 -43.65469,16.66357 c 0,0.001 0.003,0.003 0.003,0.004 0.003,0.29888 0.0362,0.5989 -0.0114,0.89607 0.0116,0.0123 0.0233,0.0249 0.0357,0.0362 0.25376,0.58008 0.27291,0.38086 0.24029,0.74931 -0.004,0.0473 -0.009,0.0945 -0.0161,0.14159 0,0.007 0,0.0175 0,0.0274 0.0538,0.0816 0.071,0.17103 0.1514,0.50075 0.0119,0.0491 -0.0106,0.10079 -0.0175,0.15089 0,0.009 0,0.0241 0,0.0377 0.18622,0.27953 0.1868,0.58148 0.12507,0.92553 0.0657,0.10213 0.11761,0.21561 0.14211,0.33073 0.1098,0.14427 0.17891,0.4406 0.19016,0.51056 0.003,0.0195 0,0.0497 0,0.0754 0.003,0.006 0.003,0.007 0.006,0.0139 0.20693,0.24186 0.38483,0.45684 0.44698,0.83147 0.11303,0.0825 0.0448,0.003 0.27131,0.44339 -0.0238,-0.0412 -0.0435,-0.0847 -0.0708,-0.12351 -0.009,-0.0127 -0.0446,-0.0423 -0.0367,-0.0289 0.0456,0.0773 0.096,0.15158 0.14574,0.22635 0.005,0.007 0.007,0.008 0.0103,0.0119 0.003,0.005 0.005,0.0107 0.008,0.016 0.0233,0.0354 0.0469,0.0707 0.0687,0.10697 0.0177,0.0293 -0.0295,-0.0421 -0.0584,-0.0842 0.0727,0.15281 0.14539,0.30557 0.21807,0.45837 -0.0331,0.0635 0.0557,0.25239 0.06,0.27389 0.0243,0.12079 0.0355,0.18393 0.046,0.24494 0.18963,0.11754 0.21307,0.1803 0.29972,0.71159 1.3e-4,0.001 -1.3e-4,0.002 0,0.003 0.0346,0.0337 0.0715,0.0656 0.10232,0.10284 0.12504,0.1511 0.17505,0.46011 0.16279,0.68833 0.0727,0.0815 0.1433,0.17891 0.26043,0.31884 0.0209,0.0622 0.0483,0.12254 0.0625,0.18655 0.0301,0.13608 0.042,0.19534 0.0558,0.26252 0.005,0.002 0.004,0.002 0.009,0.005 0.1311,0.15803 0.0897,0.10246 0.26871,0.46457 0.007,0.0144 -0.004,0.0325 0,0.0481 0.0101,0.0447 0.0282,0.0872 0.0408,0.13125 0.0191,0.0667 0.0423,0.13274 0.062,0.19948 0.008,0.008 0.0183,0.0144 0.0265,0.0227 0,5.3e-4 0.003,0.002 0.003,0.002 0.16734,0.12662 0.0177,0.0306 0.42063,0.41031 0.0315,0.12059 0.0643,0.24087 0.0946,0.36173 0.0885,0.0601 0.0784,0.0125 0.11473,0.12971 0.043,0.0955 0.10369,0.18562 0.14004,0.28319 0.0502,0.0358 0.0681,0.0407 0.0692,0.032 0.018,0.0337 0.0662,0.11225 0.18606,0.28474 -0.0863,-0.0364 0.0282,0.005 0.0403,0.092 0.003,0.0216 -0.0756,-0.041 -0.0594,-0.0264 0.40611,0.36801 0.14496,-0.004 0.46352,0.59841 0.0183,0.0346 -0.0379,-0.0686 -0.0568,-0.10283 0.0539,0.11063 0.1134,0.21889 0.16227,0.33176 0.12025,0.14127 0.21751,0.24899 0.11678,0.14366 0.006,0.011 0.0204,0.0302 0.03,0.0444 0.24982,0.0963 0.48488,0.24606 0.41495,0.56327 0.0204,0.0919 0.16864,0.26231 0.12919,0.29559 0.0552,0.064 0.10869,0.12898 0.15505,0.19948 0.0364,0.0554 0.0392,0.1264 0.0589,0.18965 0.01,0.0828 0.0198,0.16577 0.03,0.24856 0.0364,0.0293 0.0728,0.0581 0.10644,0.0904 0.0361,0.0348 0.0575,0.0825 0.0863,0.12351 -0.18383,-0.1474 -0.0899,-0.0683 0.10232,0.13178 0.0465,0.0423 0.11247,0.0886 0.15658,0.12815 0.0887,0.0299 0.17592,0.0629 0.25217,0.11576 0.0993,0.0688 0.14391,0.19399 0.21603,0.29094 -0.13639,-0.1219 0.006,-0.004 0.0289,0.0558 0.0907,0.11773 0.18944,0.23008 0.27234,0.35346 0.0206,0.0305 0.0222,0.0698 0.0346,0.10439 0.0233,0.0653 0.0497,0.12978 0.0739,0.19482 0.1774,-0.0652 0.3787,-0.0523 0.57102,0.10284 0.13581,0.10956 0.15251,0.27786 0.13177,0.46405 0.008,0.0136 0.0143,0.0251 0.0222,0.0382 0.0151,0.0253 0.0304,0.0545 0.0429,0.0672 0.0889,0.0907 0.19066,0.16745 0.2894,0.24753 0.16552,0.005 0.30081,0.13372 0.52761,0.3173 0.15092,0.12212 0.25008,0.25406 0.31213,0.38653 z m -1.17203,-1.01855 c -0.008,-0.0132 -0.0156,-0.0221 -0.0228,-0.0351 -0.0151,0.13193 -0.0471,0.27209 -0.0739,0.4098 0.0597,-0.0392 0.10845,-0.0711 0.17881,-0.11731 0.0575,-0.0378 -0.0127,-0.14152 -0.0822,-0.25735 z m -0.0228,-0.0351 c 1e-4,-10e-4 0,-0.002 0,-0.003 -0.0101,-0.0174 -0.0193,-0.0313 -0.0284,-0.0491 -0.0148,-0.0296 0.003,0.006 0.0279,0.0522 z m 0.78444,0.81236 c -0.0337,-0.0504 -0.0812,-0.10282 -0.10282,-0.15141 -0.009,-0.0191 0.0109,0.0269 0.0238,0.0584 0.014,0.0205 0.028,0.041 0.0403,0.0615 0.013,0.0105 0.0259,0.021 0.0388,0.0315 z m -1.51773,-1.37046 c 0,-2.1e-4 0,-2.7e-4 0.003,-5.3e-4 -0.003,-0.004 -0.0145,-0.0259 -0.0114,-0.0191 0.003,0.007 0.007,0.013 0.01,0.0196 z m -11.64683,-0.0258 c -1.9e-4,-0.03 0,-0.0599 0,-0.0899 0,0.0275 -0.004,0.0568 -0.005,0.0848 0.003,0.002 0.003,0.003 0.004,0.005 z m 10.58746,-1.17926 c -0.008,-0.007 -0.013,-0.0122 -0.0196,-0.0186 -0.027,-0.006 -0.0449,-0.01 -0.0259,0 0.0145,0.007 0.0305,0.0121 0.0455,0.0186 z m -0.36896,-0.50332 c -0.01,-0.013 -0.0169,-0.0277 -0.0269,-0.0403 -0.0106,-0.0132 -0.059,-0.0309 -0.0465,-0.0196 0.0233,0.0211 0.0489,0.0401 0.0734,0.0599 z m -0.88937,-1.47072 c -0.0233,-0.0218 -0.0458,-0.044 -0.0718,-0.0615 -0.0321,-0.0215 -0.15065,-0.0208 -0.11575,-0.004 0.0467,0.0222 0.11806,0.0435 0.18759,0.0656 z m 0.0589,-0.13694 c -0.0236,-0.0418 -0.0506,-0.0902 -0.0687,-0.11369 -0.0156,-0.0201 -0.0773,-0.0646 -0.062,-0.0444 0.0433,0.0575 0.0847,0.10335 0.13076,0.15813 z m -2.1699,-0.20516 c -0.0651,-0.0243 -0.13396,-0.0413 -0.20206,-0.0599 0.003,0.003 0.003,0.006 0.005,0.01 0.0382,0.0192 0.0853,0.0298 0.19741,0.0501 z m 1.34411,-1.00975 c -0.023,-0.0453 -0.0469,-0.0894 -0.0682,-0.11162 -0.0522,-0.0545 -0.249,-0.16933 -0.19378,-0.11782 0.12856,0.11988 0.20455,0.18397 0.26199,0.22944 z m -2.15233,-0.37259 c 8e-5,-0.002 -0.003,-0.005 -0.009,-0.01 -0.0888,-0.0696 -0.14409,-0.10637 -0.19844,-0.14262 0.0145,0.0227 0.029,0.0452 0.0429,0.0682 0.0538,0.04 0.16431,0.0939 0.16483,0.0842 z m 1.87693,-0.0584 c -0.0201,-0.0338 -0.0407,-0.0673 -0.0661,-0.0972 -0.0259,-0.0302 -0.12801,-0.0926 -0.10078,-0.0636 0.0762,0.0812 0.12356,0.12342 0.16693,0.16072 z m -0.97825,-1.65416 c -0.0159,-0.0204 -0.0322,-0.0404 -0.0496,-0.0568 -0.0306,-0.029 -0.28818,-0.14418 -0.30281,-0.13798 -3e-5,1.8e-4 0,2.7e-4 0,5.3e-4 -0.004,0.006 0.0792,0.0555 0.35242,0.19431 z m -1.41025,-3.64836 c 0,-0.007 -0.0373,-0.0528 -0.0723,-0.0966 0.003,0.0209 0.008,0.0396 0.0109,0.0615 0.0243,0.0195 0.062,0.0481 0.0615,0.0351 z m -0.094,-0.12248 c -0.0338,-0.0412 -0.0537,-0.0683 -0.12403,-0.14675 -0.008,-0.009 -0.029,-0.0216 -0.0455,-0.0336 0.01,0.0184 0.0188,0.0356 0.0279,0.0538 0.0485,0.0433 0.11361,0.10497 0.1416,0.1266 z m -0.94414,-2.74608 c -0.003,-0.078 0,-0.16282 -0.0832,-0.16536 0.008,0.0296 0.0257,0.0816 0.0295,0.108 0.0169,0.0192 0.0383,0.038 0.0537,0.0574 z m -0.13591,-0.68988 c -0.008,-0.052 -0.0199,-0.10131 -0.0775,-0.11266 0.019,0.0197 0.0374,0.0401 0.0568,0.0594 0.005,0.013 0.005,0.0258 0.007,0.0388 0.004,0.004 0.01,0.0106 0.0135,0.0145 z m -3.12539,-0.0398 c 0.003,-0.0971 0.004,-0.14386 -0.006,-0.0196 0.003,-0.0461 0.003,-0.0919 0.004,-0.13798 -0.0119,0.006 -0.0243,0.0113 -0.0362,0.0176 0.0122,0.0757 0.0127,0.1057 0.0382,0.14004 z m 2.697,-0.97617 c -0.003,-0.003 -0.006,-0.007 -0.009,-0.01 -0.0106,-0.01 -0.0299,-0.0206 -0.0491,-0.031 0.003,0.005 0.004,0.0111 0.006,0.0165 0.0177,0.008 0.035,0.0164 0.0527,0.0243 z" />
    <path
       id="path1438"
       transform="matrix(0.26458333,0,0,0.26458333,0,-215)"
       style="opacity:1;vector-effect:none;fill:#ffffff;fill-opacity:1;fill-rule:evenodd;stroke:none;stroke-width:1.42100585;stroke-linecap:butt;stroke-linejoin:miter;stroke-miterlimit:4;stroke-dasharray:none;stroke-dashoffset:0;stroke-opacity:1"
       d="M 1562.8574,235.11719 A 157.14286,142.85714 0 0 0 1405.7148,377.97461 157.14286,142.85714 0 0 0 1562.8574,520.83203 157.14286,142.85714 0 0 0 1720,377.97461 157.14286,142.85714 0 0 0 1562.8574,235.11719 Z" />
    <path
       id="path1440"
       transform="matrix(0.26458333,0,0,0.26458333,0,-215)"
       style="opacity:1;vector-effect:none;fill:#ffffff;fill-opacity:1;fill-rule:nonzero;stroke:none;stroke-width:1.96386111;stroke-linecap:butt;stroke-linejoin:miter;stroke-miterlimit:4;stroke-dasharray:none;stroke-dashoffset:0;stroke-opacity:1"
       d="m 1843.9922,254.4668 c -0.1127,0.2481 -0.2009,0.43527 -0.3027,0.65234 0.1841,0.23215 0.3467,0.43722 0.5117,0.64453 0.038,-0.1912 0.087,-0.38042 0.1211,-0.57226 -0.025,-0.23828 -0.058,-0.48055 -0.082,-0.7168 a 41.593834,340.7443 70.925617 0 0 -0.248,-0.008 z m 15.7988,1.40625 c 0.01,0.42842 0.024,0.85658 0.033,1.28515 0.2816,-0.3567 0.581,-0.7197 0.8926,-1.07422 a 41.593834,340.7443 70.925617 0 0 -0.9258,-0.21093 z m -176.1992,30.28125 a 41.593834,340.7443 70.925617 0 0 -144.3809,44.74023 41.593834,340.7443 70.925617 0 0 -315.4629,152.15039 41.593834,340.7443 70.925617 0 0 329.0391,-68.84375 41.593834,340.7443 70.925617 0 0 164.9941,-62.98047 c -0,-0.005 -0.01,-0.0104 -0.01,-0.0156 -0.01,-1.12965 -0.1369,-2.26357 0.043,-3.38672 -0.044,-0.0466 -0.088,-0.094 -0.1348,-0.13672 -0.9591,-2.19243 -1.0315,-1.43946 -0.9082,-2.83203 0.015,-0.17877 0.035,-0.35714 0.061,-0.53516 0,-0.0251 0,-0.066 0,-0.10351 -0.2033,-0.30828 -0.2682,-0.64642 -0.5722,-1.89258 -0.045,-0.18558 0.04,-0.38096 0.066,-0.57031 0,-0.0358 -0,-0.0912 -0,-0.14258 -0.7038,-1.05649 -0.706,-2.19771 -0.4727,-3.49805 -0.2482,-0.38599 -0.4445,-0.81489 -0.5371,-1.25 -0.415,-0.54526 -0.6762,-1.66528 -0.7187,-1.92969 -0.012,-0.0735 -0,-0.18803 -0,-0.28515 -0.01,-0.0244 -0.012,-0.0272 -0.022,-0.0527 -0.7821,-0.9141 -1.4545,-1.72664 -1.6894,-3.14257 -0.4272,-0.31191 -0.1693,-0.0112 -1.0254,-1.67579 0.09,0.15572 0.1644,0.32004 0.2676,0.4668 0.034,0.048 0.1685,0.16002 0.1386,0.10938 -0.1724,-0.29214 -0.363,-0.57289 -0.5508,-0.85547 -0.02,-0.0251 -0.026,-0.0299 -0.039,-0.0449 -0.01,-0.0202 -0.02,-0.0403 -0.029,-0.0605 -0.088,-0.13385 -0.1771,-0.26707 -0.2598,-0.4043 -0.067,-0.11066 0.1114,0.15911 0.2207,0.31836 -0.2747,-0.57753 -0.5495,-1.15489 -0.8242,-1.73242 0.1251,-0.24 -0.2103,-0.9539 -0.2266,-1.03516 -0.092,-0.45653 -0.1343,-0.69518 -0.1738,-0.92578 -0.7167,-0.44424 -0.8053,-0.68142 -1.1328,-2.68945 -5e-4,-0.004 5e-4,-0.008 0,-0.0117 -0.1309,-0.12745 -0.2702,-0.24781 -0.3867,-0.38867 -0.4726,-0.57111 -0.6616,-1.73899 -0.6153,-2.60156 -0.2747,-0.30799 -0.5416,-0.6762 -0.9843,-1.20508 -0.079,-0.23509 -0.1827,-0.46312 -0.2364,-0.70508 -0.1136,-0.51431 -0.1588,-0.73827 -0.2109,-0.99219 -0.018,-0.009 -0.015,-0.008 -0.033,-0.0176 -0.4955,-0.59727 -0.339,-0.38725 -1.0156,-1.75586 -0.026,-0.0544 0.014,-0.12268 0,-0.18164 -0.038,-0.16894 -0.1066,-0.32964 -0.1543,-0.49609 -0.072,-0.25228 -0.1598,-0.50167 -0.2343,-0.75391 -0.032,-0.0304 -0.069,-0.0546 -0.1,-0.0859 -0,-0.002 -0.01,-0.006 -0.01,-0.008 -0.6325,-0.47855 -0.067,-0.11571 -1.5898,-1.55078 -0.1191,-0.45575 -0.2429,-0.91037 -0.3574,-1.36718 -0.3345,-0.22716 -0.2961,-0.0471 -0.4336,-0.49024 -0.1624,-0.36091 -0.3919,-0.70155 -0.5293,-1.07031 -0.1898,-0.13532 -0.2575,-0.15389 -0.2617,-0.1211 -0.068,-0.12752 -0.2502,-0.42423 -0.7032,-1.07617 0.3262,0.13758 -0.1066,-0.0188 -0.1523,-0.34765 -0.011,-0.0816 0.2858,0.15516 0.2246,0.0996 -1.5349,-1.39091 -0.5479,0.0147 -1.7519,-2.26172 -0.069,-0.13077 0.1434,0.2593 0.2148,0.38867 -0.2037,-0.41813 -0.4286,-0.82733 -0.6133,-1.25391 -0.4545,-0.53393 -0.8221,-0.94105 -0.4414,-0.54297 -0.022,-0.0415 -0.077,-0.11399 -0.1133,-0.16797 -0.9442,-0.36411 -1.8326,-0.92997 -1.5683,-2.1289 -0.077,-0.34745 -0.6374,-0.9914 -0.4883,-1.11719 -0.2085,-0.24193 -0.4108,-0.48747 -0.586,-0.75391 -0.1375,-0.20937 -0.1482,-0.47774 -0.2226,-0.71679 -0.037,-0.31305 -0.075,-0.62655 -0.1133,-0.93945 -0.1374,-0.11078 -0.2752,-0.21947 -0.4023,-0.3418 -0.1365,-0.13153 -0.2174,-0.31165 -0.3262,-0.4668 0.6948,0.55709 0.3398,0.25831 -0.3867,-0.49805 -0.1758,-0.1599 -0.4251,-0.33484 -0.5918,-0.48437 -0.3353,-0.11291 -0.6649,-0.23771 -0.9531,-0.4375 -0.3754,-0.26003 -0.5439,-0.73318 -0.8165,-1.09961 0.5155,0.46072 -0.024,0.0162 -0.1093,-0.21094 -0.3428,-0.44496 -0.716,-0.86959 -1.0293,-1.33593 -0.078,-0.11528 -0.084,-0.26395 -0.1309,-0.39454 -0.088,-0.24696 -0.1877,-0.49049 -0.2793,-0.73632 -0.6705,0.24657 -1.4313,0.19771 -2.1582,-0.38868 -0.5133,-0.41411 -0.5764,-1.05019 -0.498,-1.7539 -0.029,-0.0513 -0.054,-0.0947 -0.084,-0.14453 -0.057,-0.0955 -0.1149,-0.20586 -0.1621,-0.25391 -0.336,-0.34276 -0.7206,-0.63288 -1.0938,-0.93555 -0.6256,-0.0192 -1.1369,-0.50538 -1.9941,-1.19922 -0.5704,-0.46158 -0.9452,-0.96023 -1.1797,-1.46093 z m 4.4297,3.84961 c 0.03,0.0501 0.059,0.0836 0.086,0.13281 0.057,-0.49861 0.178,-1.02837 0.2793,-1.54883 -0.2256,0.14809 -0.4099,0.26866 -0.6758,0.44336 -0.2172,0.1428 0.048,0.53489 0.3106,0.97266 z m 0.086,0.13281 c -4e-4,0.004 -0,0.008 -0,0.0117 0.038,0.0658 0.073,0.11816 0.1074,0.18554 0.056,0.11182 -0.01,-0.0225 -0.1055,-0.19726 z m -2.9648,-3.07031 c 0.1275,0.1906 0.3068,0.38859 0.3886,0.57226 0.033,0.0723 -0.041,-0.1017 -0.09,-0.2207 -0.053,-0.0775 -0.1059,-0.15513 -0.1523,-0.23242 -0.049,-0.0398 -0.098,-0.0794 -0.1465,-0.11914 z m 5.7363,5.17968 c -0,8e-4 -0,0.001 -0.01,0.002 0.01,0.0136 0.055,0.0978 0.043,0.0723 -0.012,-0.025 -0.025,-0.0493 -0.037,-0.0742 z m 44.0195,0.0977 c 7e-4,0.1133 0,0.22655 0,0.33984 0,-0.10377 0.014,-0.21451 0.02,-0.32031 -0.01,-0.007 -0.01,-0.013 -0.016,-0.0195 z m -40.0156,4.45703 c 0.031,0.0274 0.049,0.046 0.074,0.0703 0.1019,0.0245 0.1696,0.0362 0.098,0 -0.055,-0.0276 -0.1153,-0.0457 -0.1719,-0.0703 z m 1.3945,1.90234 c 0.036,0.0492 0.064,0.10458 0.1016,0.15235 0.04,0.0499 0.223,0.11693 0.1758,0.0742 -0.088,-0.0799 -0.1848,-0.15148 -0.2774,-0.22657 z m 3.3614,5.5586 c 0.088,0.0824 0.1732,0.16643 0.2715,0.23242 0.1213,0.0813 0.5694,0.0787 0.4375,0.0156 -0.1764,-0.0838 -0.4462,-0.16426 -0.709,-0.24805 z m -0.2227,0.51758 c 0.089,0.15803 0.1912,0.34096 0.2598,0.42968 0.059,0.076 0.2922,0.24432 0.2344,0.16797 -0.1636,-0.21748 -0.3202,-0.39062 -0.4942,-0.59765 z m 8.2012,0.77539 c 0.2461,0.092 0.5063,0.15593 0.7637,0.22656 -0.01,-0.0127 -0.012,-0.0244 -0.018,-0.0371 -0.1444,-0.0726 -0.3223,-0.1128 -0.7461,-0.18945 z m -5.0801,3.8164 c 0.087,0.17119 0.1773,0.33782 0.2578,0.42188 0.1973,0.20598 0.9411,0.63996 0.7324,0.44531 -0.4859,-0.45311 -0.7731,-0.69532 -0.9902,-0.86719 z m 8.1348,1.40821 c -3e-4,0.006 0.011,0.0179 0.035,0.0371 0.3358,0.26307 0.5446,0.40203 0.75,0.53906 -0.055,-0.0858 -0.1096,-0.17083 -0.1621,-0.25781 -0.2034,-0.15131 -0.621,-0.3547 -0.623,-0.31836 z M 1703.5781,311 c 0.076,0.12786 0.1537,0.25445 0.25,0.36719 0.098,0.11414 0.4838,0.34984 0.3809,0.24023 -0.2881,-0.30672 -0.467,-0.46645 -0.6309,-0.60742 z m 3.6973,6.25195 c 0.06,0.077 0.1218,0.15269 0.1875,0.21485 0.1155,0.10945 1.0892,0.54494 1.1445,0.52148 10e-5,-6.5e-4 0,-0.001 0,-0.002 0.016,-0.0224 -0.2992,-0.20989 -1.332,-0.73438 z m 5.3301,13.78907 c 0,0.0278 0.141,0.1995 0.2734,0.36523 -0.012,-0.0788 -0.031,-0.1496 -0.041,-0.23242 -0.092,-0.0737 -0.2344,-0.18188 -0.2324,-0.13281 z m 0.3554,0.46289 c 0.1279,0.15564 0.203,0.25817 0.4688,0.55468 0.032,0.0356 0.1096,0.0816 0.1719,0.12696 -0.037,-0.0695 -0.071,-0.13446 -0.1055,-0.20313 -0.1833,-0.16371 -0.4294,-0.39676 -0.5352,-0.47851 z m 3.5684,10.3789 c 0.01,0.29467 -0,0.61539 0.3145,0.625 -0.031,-0.11204 -0.097,-0.30858 -0.1114,-0.4082 -0.064,-0.0726 -0.1448,-0.14378 -0.2031,-0.2168 z m 0.5137,2.60742 c 0.029,0.19661 0.075,0.3829 0.2929,0.42579 -0.072,-0.0743 -0.1415,-0.15164 -0.2148,-0.22461 -0.019,-0.049 -0.017,-0.0976 -0.027,-0.14649 -0.014,-0.015 -0.038,-0.04 -0.051,-0.0547 z m 11.8125,0.15039 c -0.013,0.36696 -0.015,0.54372 0.022,0.0742 -0.01,0.17436 -0.01,0.34753 -0.014,0.52149 0.045,-0.024 0.092,-0.0426 0.1367,-0.0664 -0.046,-0.28627 -0.048,-0.3995 -0.1445,-0.5293 z m -10.1934,3.68946 c 0.013,0.0124 0.022,0.0249 0.035,0.0371 0.04,0.0367 0.1129,0.0777 0.1855,0.11719 -0.01,-0.0205 -0.014,-0.042 -0.022,-0.0625 -0.067,-0.0296 -0.1323,-0.062 -0.1992,-0.0918 z" />
    <ellipse
       style="opacity:1;vector-effect:none;fill:#000035;fill-opacity:1;fill-rule:evenodd;stroke:#000000;stroke-width:0.50511312;stroke-linecap:butt;stroke-linejoin:miter;stroke-miterlimit:4;stroke-dasharray:none;stroke-dashoffset:0;stroke-opacity:1"
       id="path6848-7"
       cx="465.69852"
       cy="-179.3078"
       rx="21.316992"
       ry="17.842489" />
    <ellipse
       style="opacity:1;vector-effect:none;fill:#fffffd;fill-opacity:1;fill-rule:evenodd;stroke:#000000;stroke-width:0.37597448;stroke-linecap:butt;stroke-linejoin:miter;stroke-miterlimit:4;stroke-dasharray:none;stroke-dashoffset:0;stroke-opacity:1"
       id="path6848"
       cx="465.8508"
       cy="-179.27428"
       rx="15.768902"
       ry="13.363476" />
  </g>
</svg>
